<svg width="258" height="55" viewBox="0 0 258 55" fill="none" xmlns="http://www.w3.org/2000/svg">
<rect x="109.5" y="3.5" width="128" height="47" fill="#FD0100" stroke="#FD0100"/>
<rect x="19.5" y="4.5" width="88" height="45" stroke="#FD0100" stroke-width="3"/>
<path d="M37.1113 19.2832H31.2871V21.6348H29.7695V17.7656H47.3105V21.6348H45.793V19.2832H39.9824V36.6465H42.0059V38H35.0879V36.6465H37.1113V19.2832ZM54.3926 19.1055V36.6465H56.416V38H49.498V36.6465H51.5215V19.1055H49.498V17.7656H56.416V19.1055H54.3926ZM61.1465 36.6465V19.1055H59.123V17.7656H64.4824L70.1836 32.6133L76.0625 17.7656H80.875V19.1055H78.8516V36.6465H80.875V38H74.1348V36.6465H76.1582L76.1309 21.6348L70.252 36.4824H68.9121L63.0059 21.0332V36.6465H65.1934V38H59.123V36.6465H61.1465ZM97.5137 38H83.5957V36.6465H85.6191V19.1055H83.5957V17.7656H96.9258V21.1289H95.4082V19.1055H88.4902V26.8711H93.3848V25.1758H94.7246V29.9062H93.3848V28.2109H88.4902V36.4824H95.9961V34.2949H97.5137V38Z" fill="#FD0100"/>
<path d="M117.83 37.5898V33.707H119.348L119.512 35.7305C120.268 36.2044 120.961 36.5645 121.59 36.8105C122.228 37.0475 122.802 37.166 123.312 37.166C124.452 37.166 125.391 36.8197 126.129 36.127C126.876 35.4251 127.25 34.5365 127.25 33.4609C127.25 32.5586 127.018 31.793 126.553 31.1641C126.079 30.5352 125.245 29.8835 124.051 29.209L122.629 28.3887C120.934 27.4316 119.735 26.5202 119.033 25.6543C118.331 24.7793 117.98 23.7812 117.98 22.6602C117.98 21.1107 118.536 19.8255 119.648 18.8047C120.76 17.7747 122.155 17.2598 123.832 17.2598C124.753 17.2598 125.655 17.3281 126.539 17.4648C127.423 17.6016 128.289 17.8112 129.137 18.0938V21.6484H127.619L127.441 19.707C126.849 19.3333 126.261 19.0553 125.678 18.873C125.104 18.6908 124.538 18.5996 123.982 18.5996C123.126 18.5996 122.392 18.9368 121.781 19.6113C121.171 20.2767 120.865 21.0833 120.865 22.0312C120.865 23.4349 121.781 24.6562 123.613 25.6953L125.049 26.5156C127.036 27.6458 128.376 28.6302 129.068 29.4688C129.761 30.3073 130.107 31.36 130.107 32.627C130.107 34.3132 129.479 35.7168 128.221 36.8379C126.972 37.9499 125.409 38.5059 123.531 38.5059C122.438 38.5059 121.412 38.4284 120.455 38.2734C119.507 38.1185 118.632 37.8906 117.83 37.5898ZM144.285 38.3418C143.684 38.4512 143.105 38.5059 142.549 38.5059C139.696 38.5059 137.436 37.5534 135.768 35.6484C134.109 33.7435 133.279 31.1549 133.279 27.8828C133.279 24.5924 134.113 21.9993 135.781 20.1035C137.449 18.2077 139.737 17.2598 142.645 17.2598C145.516 17.2598 147.79 18.2031 149.467 20.0898C151.153 21.9674 151.996 24.515 151.996 27.7324C151.996 30.3757 151.477 32.5768 150.438 34.3359C149.408 36.0859 147.936 37.2708 146.021 37.8906C148.656 39.0755 151.941 39.9277 155.879 40.4473C154.977 41.1035 153.837 41.6504 152.461 42.0879C149.572 41.3405 146.846 40.0918 144.285 38.3418ZM148.961 27.8828C148.961 25.0664 148.387 22.8151 147.238 21.1289C146.099 19.4427 144.568 18.5996 142.645 18.5996C140.721 18.5996 139.186 19.4427 138.037 21.1289C136.889 22.806 136.314 25.0573 136.314 27.8828C136.314 30.6992 136.889 32.9505 138.037 34.6367C139.186 36.3138 140.721 37.1523 142.645 37.1523C144.568 37.1523 146.099 36.3138 147.238 34.6367C148.387 32.9505 148.961 30.6992 148.961 27.8828ZM156.727 19.1055H154.703V17.7656H161.443V19.1055H159.598V29.8789C159.598 31.6289 159.68 32.9049 159.844 33.707C160.017 34.5091 160.34 35.1699 160.814 35.6895C161.699 36.6647 162.865 37.1523 164.314 37.1523C165.709 37.1523 166.857 36.6966 167.76 35.7852C168.617 34.9284 169.045 33.1602 169.045 30.4805V19.1055H167.021V17.7656H173.092V19.1055H171.068V29.7422C171.068 31.6198 170.964 32.987 170.754 33.8438C170.553 34.7005 170.134 35.5254 169.496 36.3184C168.32 37.7767 166.502 38.5059 164.041 38.5059C161.516 38.5059 159.666 37.8633 158.49 36.5781C157.314 35.2839 156.727 33.2467 156.727 30.4668V19.1055ZM179.121 31.9297L177.275 36.6465H179.299V38H174.459V36.6465H175.635L183.195 17.4238H184.822L192.383 36.6465H193.559V38H187.461V36.6465H189.307L187.447 31.9297H179.121ZM179.654 30.5762H186.914L183.277 21.3477L179.654 30.5762ZM200.326 29.0586V36.6465H202.35V38H195.432V36.6465H197.455V19.1055H195.432V17.7656H202.609C204.888 17.7656 206.592 18.1895 207.723 19.0371C208.862 19.8757 209.432 21.1426 209.432 22.8379C209.432 24.2142 209.081 25.3717 208.379 26.3105C207.677 27.2493 206.624 27.9694 205.221 28.4707L210.621 36.6465H212.125V38H207.941L202.404 29.0586H200.326ZM200.326 27.7051H201.188C202.928 27.7051 204.232 27.3086 205.098 26.5156C205.964 25.7135 206.396 24.5195 206.396 22.9336C206.396 21.4661 206.005 20.4635 205.221 19.9258C204.437 19.3789 202.974 19.1055 200.832 19.1055H200.326V27.7051ZM228.244 38H214.326V36.6465H216.35V19.1055H214.326V17.7656H227.656V21.1289H226.139V19.1055H219.221V26.8711H224.115V25.1758H225.455V29.9062H224.115V28.2109H219.221V36.4824H226.727V34.2949H228.244V38Z" fill="white"/>
</svg>
